<svg xmlns="http://www.w3.org/2000/svg" width="98.55" height="90.523" viewBox="0 0 98.55 90.523">
  <g id="quotation" transform="translate(-0.001 0)">
    <path id="Path_1793" data-name="Path 1793" d="M98.289,64.294A46.476,46.476,0,0,1,96.6,43.369,35.6,35.6,0,0,0,72.788,1.67a1.444,1.444,0,1,0-.874,2.752A32.5,32.5,0,0,1,94.579,35.415a32.826,32.826,0,0,1-.8,7.35c0,.021-.009.042-.013.063a49.65,49.65,0,0,0,1.793,22.39,2,2,0,0,1-.362,1.951,2.068,2.068,0,0,1-1.889.738,23.133,23.133,0,0,1-7.834-2.368,11,11,0,0,0-9.792-.384A32.7,32.7,0,0,1,29.285,35.871a32.648,32.648,0,0,1,32-32.978,33.44,33.44,0,0,1,5.059.284A1.444,1.444,0,0,0,66.72.315a36.461,36.461,0,0,0-5.5-.308A35.621,35.621,0,0,0,29.913,20.085,35.577,35.577,0,0,0,1.955,62.83,46.436,46.436,0,0,1,.263,83.754a4.9,4.9,0,0,0,.871,4.714,4.938,4.938,0,0,0,4.505,1.761,25.994,25.994,0,0,0,8.811-2.686,8.094,8.094,0,0,1,7.208-.309,39.045,39.045,0,0,0,15.616,3.289A34.212,34.212,0,0,0,53.381,86.3,36.077,36.077,0,0,0,65.522,75.611a1.444,1.444,0,1,0-2.347-1.682,33.175,33.175,0,0,1-11.164,9.833,32.583,32.583,0,0,1-29.135.853A11,11,0,0,0,13.084,85a23.127,23.127,0,0,1-7.835,2.368A2.071,2.071,0,0,1,3.36,86.63,2,2,0,0,1,3,84.679,49.617,49.617,0,0,0,4.792,62.291c0-.022-.008-.044-.013-.066A32.573,32.573,0,0,1,28.537,23.343a35.507,35.507,0,0,0,8.195,37.188A34.61,34.61,0,0,0,61.278,71.062a36.494,36.494,0,0,0,15.617-3.289,8.1,8.1,0,0,1,7.208.308,25.987,25.987,0,0,0,8.812,2.687,4.951,4.951,0,0,0,5.375-6.474Zm0,0" transform="translate(0)" fill="#ff8703"/>
    <path id="Path_1794" data-name="Path 1794" d="M226.4,128.16h-4.547a5.388,5.388,0,0,0-5.381,5.381v5.439a5.39,5.39,0,0,0,5.389,5.382h0a3.929,3.929,0,0,1,3.347,2.138,10.64,10.64,0,0,1,1.013,3.452,3.316,3.316,0,0,0,3.566,3.156,3.525,3.525,0,0,0,3.052-1.762c1.96-3.316,3.829-8.971,1.6-17.086a8.344,8.344,0,0,0-8.038-6.1Zm3.953,21.716a.659.659,0,0,1-.734.326.641.641,0,0,1-.532-.586,13.517,13.517,0,0,0-1.288-4.387,6.858,6.858,0,0,0-5.941-3.753h-.007a2.5,2.5,0,0,1-2.494-2.494v-5.439a2.5,2.5,0,0,1,2.494-2.494H226.4a5.449,5.449,0,0,1,5.253,3.977c1.575,5.732,1.138,10.729-1.3,14.851Zm0,0" transform="translate(-174.805 -103.492)" fill="#ff8703"/>
    <path id="Path_1795" data-name="Path 1795" d="M328.391,133.541v5.439a5.387,5.387,0,0,0,5.377,5.382,3.956,3.956,0,0,1,3.359,2.138,10.62,10.62,0,0,1,1.013,3.452,3.4,3.4,0,0,0,3.566,3.156,3.525,3.525,0,0,0,3.053-1.762c1.96-3.315,3.829-8.971,1.6-17.086a8.344,8.344,0,0,0-8.037-6.1h-4.547a5.388,5.388,0,0,0-5.382,5.381Zm2.887,0a2.5,2.5,0,0,1,2.495-2.494h4.547a5.448,5.448,0,0,1,5.253,3.978c1.575,5.731,1.138,10.728-1.3,14.85a.66.66,0,0,1-.735.326.641.641,0,0,1-.531-.586,13.511,13.511,0,0,0-1.288-4.387,6.859,6.859,0,0,0-5.941-3.753h-.007a2.5,2.5,0,0,1-2.495-2.494Zm0,0" transform="translate(-265.181 -103.492)" fill="#ff8703"/>
  </g>
</svg>
